Coordinates
version=1
nRows=10
nColumns=33
inDegrees=yes

Units are S.I. units (second, meters, Newtons, ...)
Angles are in degrees.

endheader
time	ground_thorax_rot_x	ground_thorax_rot_y	ground_thorax_rot_z	ground_thorax_tx	ground_thorax_ty	ground_thorax_tz	clav_prot_r	clav_elev_r	scapula_abduction_r	scapula_elevation_r	scapula_upward_rot_r	scapula_winging_r	shoulder_elv_r	plane_of_elev_r	axial_rot_r	elbow_flexion_r	pro_sup_r	wrist_flex_r	wrist_dev_r	clav_prot_l	clav_elev_l	scapula_abduction_l	scapula_elevation_l	scapula_upward_rot_l	scapula_winging_l	shoulder_elv_l	plane_of_elev_l	axial_rot_l	elbow_flexion_l	pro_sup_l	wrist_flex_l	wrist_dev_l
      9.10000000	     -7.87316845	    -42.24320640	     76.61887176	     56.50247533	    760.70409851	    -29.61689033	     45.00000000	    -45.00000000	     39.52741125	    -45.00000000	    -45.00000000	  -1088.87674127	  -2264.23717293	    -90.00000000	     33.11937394	   1064.24265950	    125.05687647	     11.91792181	      8.36580106	     -4.71899979	     35.32953226	    -27.59823477	    -45.00000000	    -38.41948068	  -3502.57183263	  -2264.02708545	    140.88965133	    179.99999979	   1436.12131146	   -321.93344233	     15.14159157	    -17.77875294
      9.11000000	     -8.11569920	    -42.20907586	     76.36613306	     56.46447599	    760.30282024	    -29.53681053	     45.00000000	    -45.00000000	     39.48426208	    -45.00000000	    -45.00000000	  -1088.90611010	  -2264.29181033	    -90.00000000	     33.18863068	   1064.25525229	    125.12704785	     11.96988873	      8.32516049	     -4.65867077	     35.79981979	    -27.67825053	    -45.00000000	    -38.66419950	  -3502.66483267	  -2264.05048929	    140.94737896	    179.99999979	   1436.15067895	   -322.33808918	     15.16823461	    -17.91178669
      9.12000000	     -8.30972894	    -42.22245507	     76.12928825	     56.31228671	    759.95275887	    -29.46132225	     45.00000000	    -45.00000000	     39.50301085	    -45.00000000	    -45.00000000	  -1088.88735890	  -2264.35745487	    -90.00000000	     33.26865187	   1064.28440693	    125.25666811	     11.92476946	      8.38930340	     -4.62525397	     35.26429713	    -27.60913688	    -45.00000000	    -38.51714513	  -3502.58556585	  -2264.06470968	    140.87505315	    179.99999979	   1436.05279299	   -322.64725405	     15.15137150	    -17.72341766
      9.13000000	     -8.58479224	    -42.20427921	     75.80577353	     56.04557851	    759.64915115	    -29.39631182	     45.00000000	    -45.00000000	     39.48394774	    -45.00000000	    -45.00000000	  -1088.88812625	  -2264.41617462	    -90.00000000	     33.34157008	   1064.28741869	    125.43674106	     11.99088692	      8.32821867	     -4.65413966	     35.86913985	    -27.65087115	    -45.00000000	    -38.72383230	  -3502.75305615	  -2264.01803272	    140.96928553	    179.99999979	   1436.05447601	   -322.99615432	     15.19096779	    -17.90680874
      9.14000000	     -8.80348384	    -42.17261780	     75.55270437	     55.66639072	    759.38714835	    -29.34577504	     45.00000000	    -45.00000000	     39.49680466	    -45.00000000	    -45.00000000	  -1088.90606611	  -2264.44744659	    -90.00000000	     33.38756879	   1064.37354151	    125.66404012	     11.93787041	      8.38966729	     -4.53257485	     35.19073773	    -27.67066635	    -45.00000000	    -38.56859333	  -3502.62175523	  -2264.09527737	    140.87987430	    179.99999979	   1435.95068999	   -323.24150493	     15.16170323	    -17.67814090
      9.15000000	     -9.12889629	    -42.14378367	     75.11396503	     55.18047549	    759.16364024	    -29.31492869	     45.00000000	    -45.00000000	     39.48400470	    -45.00000000	    -45.00000000	  -1088.86685650	  -2264.49641899	    -90.00000000	     33.45070308	   1064.35836340	    125.92630069	     12.04272316	      8.30049799	     -4.62873146	     35.91625814	    -27.65050188	    -45.00000000	    -38.79304110	  -3502.87496617	  -2264.00266543	    140.95882235	    179.99999979	   1435.96470969	   -323.53705799	     15.20627316	    -17.94929745
      9.16000000	     -9.34926298	    -42.12229763	     74.87634478	     54.59127845	    758.97250176	    -29.30869863	     45.00000000	    -45.00000000	     39.51548315	    -45.00000000	    -45.00000000	  -1088.90996220	  -2264.53908390	    -90.00000000	     33.50787472	   1064.46590715	    126.22273239	     11.96207927	      8.38795798	     -4.41415357	     35.06929241	    -27.75259931	    -45.00000000	    -38.58355484	  -3502.64912574	  -2264.09885317	    140.88188103	    179.99999979	   1435.84199106	   -323.69174015	     15.14276762	    -17.64420951
      9.17000000	     -9.62743829	    -42.10977400	     74.59540667	     53.89790910	    758.80689936	    -29.33193379	     45.00000000	    -45.00000000	     39.44650924	    -45.00000000	    -45.00000000	  -1088.99978054	  -2264.56746598	    -90.00000000	     33.55354994	   1064.48081205	    126.58902656	     12.01064317	      8.35347027	     -4.43120607	     35.50786429	    -27.79049544	    -45.00000000	    -38.76679388	  -3502.81313577	  -2263.94708696	    140.95794695	    179.99999979	   1435.88517477	   -323.92701981	     15.16808172	    -17.83366759
      9.18000000	    -10.02675805	    -42.08470496	     73.98721477	     53.10664366	    758.66217326	    -29.38847284	     45.00000000	    -45.00000000	     39.45138925	    -45.00000000	    -45.00000000	  -1088.91217441	  -2264.57095639	    -90.00000000	     33.57141452	   1064.44167355	    126.91195139	     12.16325148	      8.30867247	     -4.51271547	     35.45243931	    -27.73956893	    -45.00000000	    -38.71432562	  -3502.86551598	  -2263.96690324	    140.85775638	    179.99999979	   1435.80976089	   -324.05415594	     15.09556467	    -17.87129463
      9.19000000	    -10.30393989	    -42.08425220	     73.66849025	     52.21386919	    758.53151147	    -29.48055785	     45.00000000	    -45.00000000	     39.48379827	    -45.00000000	    -45.00000000	  -1088.93583594	  -2264.65401284	    -90.00000000	     33.66823506	   1064.40036824	    127.26024854	     12.06616860	      8.41347763	     -4.31289278	     35.52443489	    -27.91190592	    -45.00000000	    -38.64136436	  -3502.83849872	  -2263.90728818	    141.01196933	    179.99999979	   1435.83606983	   -324.13891647	     15.10209380	    -17.91369826
